<?xml version="1.0" standalone="no"?>
<!DOCTYPE svg PUBLIC "-//W3C//DTD SVG 20010904//EN"
 "http://www.w3.org/TR/2001/REC-SVG-20010904/DTD/svg10.dtd">
<svg version="1.0" xmlns="http://www.w3.org/2000/svg"
 width="324.000000pt" height="324.000000pt" viewBox="0 0 324.000000 324.000000"
 preserveAspectRatio="xMidYMid meet">
<metadata>
Created by potrace 1.14, written by Peter Selinger 2001-2017
</metadata>
<g transform="translate(0.000000,324.000000) scale(0.100000,-0.100000)"
fill="#000000" stroke="none">
<path d="M1500 3016 c-195 -29 -365 -86 -527 -178 -367 -209 -608 -542 -690
-956 -23 -117 -23 -355 1 -475 87 -446 386 -836 799 -1042 200 -101 392 -145
627 -145 512 0 1008 241 1200 583 18 32 31 59 29 61 -2 1 -92 48 -201 104
l-196 102 -33 -58 c-17 -31 -62 -88 -98 -125 -115 -119 -253 -198 -431 -244
-133 -35 -343 -37 -474 -5 -350 87 -626 365 -723 728 -23 88 -26 118 -27 264
0 181 11 245 73 406 87 226 269 421 485 519 286 130 684 103 938 -64 84 -55
181 -155 229 -235 22 -37 39 -54 48 -51 30 12 361 218 361 225 0 20 -93 144
-162 216 -178 185 -416 311 -683 360 -123 22 -421 27 -545 10z"/>
<path d="M1940 2265 c-7 -14 -32 -34 -54 -45 -70 -33 -110 -80 -113 -131 -5
-100 -15 -169 -24 -169 -5 0 -9 -8 -9 -17 0 -9 -12 -34 -26 -55 -22 -31 -29
-36 -41 -26 -12 10 -12 6 1 -26 21 -51 20 -92 -4 -131 -38 -62 -135 -73 -189
-21 -29 28 -78 35 -99 14 -10 -10 -21 -3 -52 31 -37 40 -39 46 -25 61 8 9 15
22 15 28 0 6 8 13 18 16 9 3 5 4 -10 2 -16 -2 -29 3 -32 11 -7 17 -84 15 -118
-3 -21 -12 -22 -13 -3 -14 13 0 62 -47 133 -125 l113 -125 87 0 c78 0 88 2
112 25 54 52 142 42 180 -20 51 -83 -4 -185 -100 -185 -37 0 -85 23 -93 45 -5
12 -28 15 -124 16 l-118 0 -114 125 -113 125 -57 -3 -56 -3 -3 -48 -3 -49 81
3 81 3 36 -37 35 -38 -28 -30 c-26 -27 -33 -29 -102 -29 l-74 0 6 -31 c9 -46
72 -167 119 -228 86 -112 233 -209 377 -248 47 -13 100 -18 190 -17 109 0 135
4 205 28 349 119 552 463 479 814 -48 234 -211 432 -421 512 l-50 19 -13 -24z"/>
<path d="M1555 1760 c3 -6 -1 -10 -9 -10 -23 0 -20 -37 3 -50 34 -18 68 10 55
45 -5 13 -9 13 -22 3 -10 -8 -13 -8 -9 -2 4 7 0 15 -9 18 -8 3 -12 2 -9 -4z"/>
<path d="M1678 1509 c-22 -12 -23 -42 -3 -59 32 -26 81 13 59 48 -14 21 -33
25 -56 11z"/>
</g>
</svg>
